Coordinates
version=1
nRows=14
nColumns=40
inDegrees=yes

Units are S.I. units (second, meters, Newtons, ...)
If the header above contains a line with 'inDegrees', this indicates whether rotational values are in degrees (yes) or radians (no).

endheader
time	pelvis_tilt	pelvis_list	pelvis_rotation	pelvis_tx	pelvis_ty	pelvis_tz	hip_flexion_r	hip_adduction_r	hip_rotation_r	knee_angle_r	knee_angle_r_beta	ankle_angle_r	subtalar_angle_r	mtp_angle_r	hip_flexion_l	hip_adduction_l	hip_rotation_l	knee_angle_l	knee_angle_l_beta	ankle_angle_l	subtalar_angle_l	mtp_angle_l	lumbar_extension	lumbar_bending	lumbar_rotation	arm_flex_r	arm_add_r	arm_rot_r	elbow_flex_r	pro_sup_r	wrist_flex_r	wrist_dev_r	arm_flex_l	arm_add_l	arm_rot_l	elbow_flex_l	pro_sup_l	wrist_flex_l	wrist_dev_l
      0.00000000	     19.27566078	      2.33484831	      2.58325578	     -0.11279950	      0.96918215	     -0.31002004	      4.40637533	     -4.94923974	     -9.02929780	     23.94204784	      0.41786756	     -8.47451492	      0.00000000	      0.00000000	    -28.04982098	      4.42144176	      6.37216057	     10.01515726	      0.17479747	     -2.41430793	      0.00000000	      0.00000000	    -34.43717744	     -0.90300595	     -7.59836674	      1.15950835	    -14.16875360	      5.80247320	     41.22471605	     76.35776485	      0.00000000	      0.00000000	      9.48496476	    -28.68392606	     25.50728507	     55.84116527	     73.38539961	      0.00000000	      0.00000000
      0.00400000	     19.04476979	      2.40261962	      2.52389760	     -0.10847145	      0.96808244	     -0.31010133	      4.95322373	     -4.97128031	     -9.00690295	     22.98053510	      0.40108600	     -8.86854014	      0.00000000	      0.00000000	    -28.07606585	      4.54316690	      6.19229162	     10.08621615	      0.17603768	     -2.24243534	      0.00000000	      0.00000000	    -34.27731752	     -0.96616827	     -7.65914860	      1.27984924	    -14.09921295	      5.66530165	     41.10996260	     76.78117119	      0.00000000	      0.00000000	      9.70360055	    -28.67622668	     25.66038507	     55.90983290	     73.75049870	      0.00000000	      0.00000000
      0.00800000	     18.82244284	      2.52708379	      2.44774819	     -0.10377383	      0.96687198	     -0.30998269	      5.51147420	     -5.07218644	     -9.22739688	     22.16581227	      0.38686641	     -8.91218497	      0.00000000	      0.00000000	    -28.21221996	      4.69248014	      6.02802593	     10.01022818	      0.17471144	     -2.08776080	      0.00000000	      0.00000000	    -34.10657138	     -1.10150659	     -7.74492291	      1.29713938	    -14.06553304	      5.63934545	     41.16674561	     76.85791066	      0.00000000	      0.00000000	      9.82991898	    -28.73044597	     25.69842257	     56.00370652	     73.83431910	      0.00000000	      0.00000000
      0.01200000	     18.73048557	      2.57318323	      2.32291475	     -0.09954466	      0.96580995	     -0.30988565	      6.09688632	     -5.10312865	     -9.46667706	     21.66863660	      0.37818905	     -8.88353829	      0.00000000	      0.00000000	    -28.41650116	      4.78684103	      5.94039625	     10.00305055	      0.17458617	     -2.00362844	      0.00000000	      0.00000000	    -34.13235257	     -1.16658688	     -7.77260274	      1.44917674	    -14.05447461	      5.61678564	     41.19129573	     76.87814873	      0.00000000	      0.00000000	     10.05064175	    -28.73352490	     25.70982376	     56.13403509	     73.87003544	      0.00000000	      0.00000000
      0.01600000	     18.45409638	      2.67889771	      2.47793242	     -0.09519046	      0.96482065	     -0.30973318	      6.39457543	     -5.04725910	     -9.43842357	     20.14884905	      0.35166376	     -9.79127841	      0.00000000	      0.00000000	    -28.35872610	      4.79435295	      6.10942475	     10.14388065	      0.17704412	     -1.75319084	      0.00000000	      0.00000000	    -33.93475186	     -1.21108425	     -7.97953509	      1.46106462	    -13.87551090	      5.67805350	     41.13923602	     77.13299305	      0.00000000	      0.00000000	     10.33928663	    -28.83688823	     26.02649766	     56.10226425	     74.10422304	      0.00000000	      0.00000000
      0.02000000	     18.33426638	      2.66514300	      2.47579263	     -0.09055739	      0.96384463	     -0.30944342	      6.75931506	     -4.93329711	     -9.65396186	     19.19186433	      0.33496122	    -10.12297899	      0.00000000	      0.00000000	    -28.48292615	      4.73166183	      5.91773868	     10.28976780	      0.17959033	     -1.55719153	      0.00000000	      0.00000000	    -33.88953880	     -1.19284452	     -7.95916754	      1.51382103	    -13.78259310	      5.23734881	     40.95636356	     77.15842887	      0.00000000	      0.00000000	     10.55714832	    -28.85337244	     26.14250344	     56.18519842	     74.37502042	      0.00000000	      0.00000000
      0.02400000	     18.15986381	      2.73447171	      2.52418824	     -0.08617677	      0.96276239	     -0.30952505	      7.14387882	     -4.89497868	     -9.66951286	     18.17981324	      0.31729760	    -10.43880683	      0.00000000	      0.00000000	    -28.54003603	      4.76937999	      5.92361780	     10.42215604	      0.18190094	     -1.36711035	      0.00000000	      0.00000000	    -33.80022502	     -1.20953525	     -8.05527757	      1.60108500	    -13.72158625	      5.11436217	     40.88639468	     77.22151922	      0.00000000	      0.00000000	     10.81019855	    -28.85353077	     26.27143885	     56.18355515	     74.49685664	      0.00000000	      0.00000000
      0.02800000	     17.97536328	      2.76172604	      2.47872618	     -0.08158172	      0.96165739	     -0.30908803	      7.52954170	     -4.77106497	     -9.59280106	     17.16512184	      0.29958789	    -10.73186954	      0.00000000	      0.00000000	    -28.60778497	      4.77601277	      5.76636110	     10.53763246	      0.18391638	     -1.17147835	      0.00000000	      0.00000000	    -33.67849724	     -1.26677403	     -8.06402799	      1.64448982	    -13.59562384	      5.23640406	     40.84010367	     77.48104468	      0.00000000	      0.00000000	     11.03878925	    -28.91125991	     26.44349008	     56.20990088	     74.59726784	      0.00000000	      0.00000000
      0.03200000	     17.88746041	      2.79563891	      2.38265333	     -0.07718705	      0.96058188	     -0.30872958	      8.09737889	     -4.74234203	     -9.78155595	     16.79121056	      0.29306191	    -10.66276301	      0.00000000	      0.00000000	    -28.80605595	      4.81698321	      5.67019533	     10.56206570	      0.18434282	     -1.11974214	      0.00000000	      0.00000000	    -33.70801301	     -1.32669865	     -8.09352317	      1.78749102	    -13.54177582	      5.21769565	     40.84943557	     77.49068459	      0.00000000	      0.00000000	     11.22397039	    -28.94615226	     26.42036018	     56.28736939	     74.60165328	      0.00000000	      0.00000000
      0.03600000	     17.60683354	      2.76463002	      2.18095594	     -0.07293135	      0.95937761	     -0.30823256	      8.45912665	     -4.47626671	     -9.03209031	     15.33267123	      0.26760560	    -11.63306239	      0.00000000	      0.00000000	    -28.65775876	      4.86013574	      5.31272832	     10.86195674	      0.18957691	     -0.79473318	      0.00000000	      0.00000000	    -33.50308066	     -1.40052993	     -7.92689712	      1.93461344	    -13.44169015	      5.03337817	     40.54050132	     77.52772114	      0.00000000	      0.00000000	     11.47308496	    -28.94964375	     26.58754910	     56.27599858	     74.66292200	      0.00000000	      0.00000000
      0.04000000	     17.39851789	      2.77840788	      2.22927348	     -0.06817186	      0.95823849	     -0.30778073	      8.80608561	     -4.33465393	     -8.87001132	     14.34043605	      0.25028783	    -11.91012103	      0.00000000	      0.00000000	    -28.68620533	      4.80175450	      5.23150803	     11.02929221	      0.19249746	     -0.55917272	      0.00000000	      0.00000000	    -33.34465679	     -1.40948384	     -7.95907987	      1.98416847	    -13.31735958	      5.03129821	     40.38584360	     77.61835009	      0.00000000	      0.00000000	     11.68671240	    -28.97088285	     26.75601584	     56.28295187	     74.72541589	      0.00000000	      0.00000000
      0.04400000	     17.17845386	      2.83571535	      2.41713364	     -0.06336018	      0.95710963	     -0.30768873	      9.09088759	     -4.26215414	     -8.75108943	     13.26659832	      0.23154582	    -12.22141043	      0.00000000	      0.00000000	    -28.69854843	      4.73818360	      5.34148592	     11.20665600	      0.19559305	     -0.38672299	      0.00000000	      0.00000000	    -33.17491644	     -1.37665116	     -8.18809410	      2.04894495	    -13.15621462	      4.84121785	     40.19765356	     77.65162790	      0.00000000	      0.00000000	     11.83111102	    -29.00193588	     26.82901200	     56.24270153	     74.73025406	      0.00000000	      0.00000000
      0.04800000	     17.06032109	      2.81425880	      2.13001844	     -0.05905407	      0.95603806	     -0.30721604	      9.41287167	     -4.04812548	     -8.08671279	     12.28981814	      0.21449779	    -12.72464570	      0.00000000	      0.00000000	    -28.75142278	      4.81768912	      4.92873930	     11.44726964	      0.19979255	     -0.22593089	      0.00000000	      0.00000000	    -33.15930670	     -1.46770061	     -7.96681297	      2.19531720	    -13.15873961	      4.85207327	     40.09887835	     77.64512231	      0.00000000	      0.00000000	     12.08767419	    -28.98406287	     26.94674754	     56.26533953	     74.73738064	      0.00000000	      0.00000000
      0.05200000	     16.81689289	      2.90909522	      2.24113991	     -0.05398318	      0.95478915	     -0.30711334	      9.83025229	     -4.05309553	     -7.98161030	     11.58072762	      0.20212183	    -12.71034138	      0.00000000	      0.00000000	    -28.77750222	      4.83073559	      4.91136104	     11.56261686	      0.20180573	     -0.15480171	      0.00000000	      0.00000000	    -32.93748207	     -1.49058476	     -8.10213940	      2.16644372	    -13.09559414	      4.89351967	     40.01559725	     77.65982398	      0.00000000	      0.00000000	     12.19803372	    -29.01225704	     27.05206452	     56.26080880	     74.74363352	      0.00000000	      0.00000000
